<mxfile host="app.diagrams.net" modified="2023-04-16T01:48:16.807Z" agent="Mozilla/5.0 (X11; Linux x86_64) AppleWebKit/537.36 (KHTML, like Gecko) Chrome/112.0.0.0 Safari/537.36" etag="raK3L3h8RTjdXmIJ_WDp" version="21.1.2" type="github">
  <diagram name="第 1 页" id="W9Z0VFAZ-FVbTd7GJrUn">
    <mxGraphModel dx="1562" dy="847" grid="1" gridSize="10" guides="1" tooltips="1" connect="1" arrows="1" fold="1" page="1" pageScale="1" pageWidth="827" pageHeight="1169" math="0" shadow="0">
      <root>
        <mxCell id="0" />
        <mxCell id="1" parent="0" />
        <mxCell id="9yDHnJCXjqSah3qOX6L0-13" value="" style="edgeStyle=orthogonalEdgeStyle;rounded=0;orthogonalLoop=1;jettySize=auto;html=1;" edge="1" parent="1" source="9yDHnJCXjqSah3qOX6L0-7" target="9yDHnJCXjqSah3qOX6L0-10">
          <mxGeometry relative="1" as="geometry" />
        </mxCell>
        <mxCell id="9yDHnJCXjqSah3qOX6L0-7" value="Traffic From Outside" style="rounded=1;whiteSpace=wrap;html=1;" vertex="1" parent="1">
          <mxGeometry x="175" y="130" width="120" height="50" as="geometry" />
        </mxCell>
        <mxCell id="9yDHnJCXjqSah3qOX6L0-12" style="edgeStyle=orthogonalEdgeStyle;rounded=0;orthogonalLoop=1;jettySize=auto;html=1;" edge="1" parent="1" source="9yDHnJCXjqSah3qOX6L0-10" target="9yDHnJCXjqSah3qOX6L0-11">
          <mxGeometry relative="1" as="geometry" />
        </mxCell>
        <mxCell id="9yDHnJCXjqSah3qOX6L0-24" style="edgeStyle=orthogonalEdgeStyle;rounded=0;orthogonalLoop=1;jettySize=auto;html=1;" edge="1" parent="1" source="9yDHnJCXjqSah3qOX6L0-10" target="9yDHnJCXjqSah3qOX6L0-23">
          <mxGeometry relative="1" as="geometry" />
        </mxCell>
        <mxCell id="9yDHnJCXjqSah3qOX6L0-10" value="request match the path prefix" style="rhombus;whiteSpace=wrap;html=1;" vertex="1" parent="1">
          <mxGeometry x="135" y="230" width="200" height="80" as="geometry" />
        </mxCell>
        <mxCell id="9yDHnJCXjqSah3qOX6L0-19" value="" style="edgeStyle=orthogonalEdgeStyle;rounded=0;orthogonalLoop=1;jettySize=auto;html=1;" edge="1" parent="1" source="9yDHnJCXjqSah3qOX6L0-11" target="9yDHnJCXjqSah3qOX6L0-18">
          <mxGeometry relative="1" as="geometry" />
        </mxCell>
        <mxCell id="9yDHnJCXjqSah3qOX6L0-25" style="edgeStyle=orthogonalEdgeStyle;rounded=0;orthogonalLoop=1;jettySize=auto;html=1;" edge="1" parent="1" source="9yDHnJCXjqSah3qOX6L0-11" target="9yDHnJCXjqSah3qOX6L0-23">
          <mxGeometry relative="1" as="geometry" />
        </mxCell>
        <mxCell id="9yDHnJCXjqSah3qOX6L0-11" value="ip of request&amp;nbsp; is an allowed ip" style="rhombus;whiteSpace=wrap;html=1;" vertex="1" parent="1">
          <mxGeometry x="135" y="350" width="200" height="80" as="geometry" />
        </mxCell>
        <mxCell id="9yDHnJCXjqSah3qOX6L0-15" value="Yes" style="text;html=1;strokeColor=none;fillColor=none;align=center;verticalAlign=middle;whiteSpace=wrap;rounded=0;" vertex="1" parent="1">
          <mxGeometry x="230" y="320" width="60" height="30" as="geometry" />
        </mxCell>
        <mxCell id="9yDHnJCXjqSah3qOX6L0-16" value="Yes" style="text;html=1;strokeColor=none;fillColor=none;align=center;verticalAlign=middle;whiteSpace=wrap;rounded=0;" vertex="1" parent="1">
          <mxGeometry x="230" y="440" width="60" height="30" as="geometry" />
        </mxCell>
        <mxCell id="9yDHnJCXjqSah3qOX6L0-22" value="" style="edgeStyle=orthogonalEdgeStyle;rounded=0;orthogonalLoop=1;jettySize=auto;html=1;" edge="1" parent="1" source="9yDHnJCXjqSah3qOX6L0-18" target="9yDHnJCXjqSah3qOX6L0-21">
          <mxGeometry relative="1" as="geometry" />
        </mxCell>
        <mxCell id="9yDHnJCXjqSah3qOX6L0-26" style="edgeStyle=orthogonalEdgeStyle;rounded=0;orthogonalLoop=1;jettySize=auto;html=1;entryX=0.5;entryY=0;entryDx=0;entryDy=0;" edge="1" parent="1" source="9yDHnJCXjqSah3qOX6L0-18" target="9yDHnJCXjqSah3qOX6L0-23">
          <mxGeometry relative="1" as="geometry" />
        </mxCell>
        <mxCell id="9yDHnJCXjqSah3qOX6L0-18" value="request&amp;nbsp; is an authenticated request" style="rhombus;whiteSpace=wrap;html=1;" vertex="1" parent="1">
          <mxGeometry x="135" y="470" width="200" height="80" as="geometry" />
        </mxCell>
        <mxCell id="9yDHnJCXjqSah3qOX6L0-27" style="edgeStyle=orthogonalEdgeStyle;rounded=0;orthogonalLoop=1;jettySize=auto;html=1;exitX=1;exitY=0.5;exitDx=0;exitDy=0;entryX=0.5;entryY=0;entryDx=0;entryDy=0;" edge="1" parent="1" source="9yDHnJCXjqSah3qOX6L0-21" target="9yDHnJCXjqSah3qOX6L0-23">
          <mxGeometry relative="1" as="geometry">
            <mxPoint x="650" y="660" as="targetPoint" />
            <Array as="points">
              <mxPoint x="365" y="620" />
              <mxPoint x="650" y="620" />
            </Array>
          </mxGeometry>
        </mxCell>
        <mxCell id="9yDHnJCXjqSah3qOX6L0-36" style="edgeStyle=orthogonalEdgeStyle;rounded=0;orthogonalLoop=1;jettySize=auto;html=1;entryX=0.5;entryY=0;entryDx=0;entryDy=0;" edge="1" parent="1" source="9yDHnJCXjqSah3qOX6L0-21" target="9yDHnJCXjqSah3qOX6L0-35">
          <mxGeometry relative="1" as="geometry" />
        </mxCell>
        <mxCell id="9yDHnJCXjqSah3qOX6L0-21" value="request&amp;nbsp; has been limited by the ratelimit" style="rhombus;whiteSpace=wrap;html=1;" vertex="1" parent="1">
          <mxGeometry x="110" y="580" width="250" height="80" as="geometry" />
        </mxCell>
        <mxCell id="9yDHnJCXjqSah3qOX6L0-23" value="return reponse with code(4xx/5xx)" style="rounded=1;whiteSpace=wrap;html=1;" vertex="1" parent="1">
          <mxGeometry x="590" y="790" width="120" height="60" as="geometry" />
        </mxCell>
        <mxCell id="9yDHnJCXjqSah3qOX6L0-28" value="No" style="text;html=1;strokeColor=none;fillColor=none;align=center;verticalAlign=middle;whiteSpace=wrap;rounded=0;" vertex="1" parent="1">
          <mxGeometry x="460" y="250" width="60" height="30" as="geometry" />
        </mxCell>
        <mxCell id="9yDHnJCXjqSah3qOX6L0-29" value="No" style="text;html=1;strokeColor=none;fillColor=none;align=center;verticalAlign=middle;whiteSpace=wrap;rounded=0;" vertex="1" parent="1">
          <mxGeometry x="460" y="370" width="60" height="30" as="geometry" />
        </mxCell>
        <mxCell id="9yDHnJCXjqSah3qOX6L0-30" value="Yes" style="text;html=1;strokeColor=none;fillColor=none;align=center;verticalAlign=middle;whiteSpace=wrap;rounded=0;" vertex="1" parent="1">
          <mxGeometry x="460" y="490" width="60" height="30" as="geometry" />
        </mxCell>
        <mxCell id="9yDHnJCXjqSah3qOX6L0-31" value="No" style="text;html=1;strokeColor=none;fillColor=none;align=center;verticalAlign=middle;whiteSpace=wrap;rounded=0;" vertex="1" parent="1">
          <mxGeometry x="230" y="670" width="60" height="30" as="geometry" />
        </mxCell>
        <mxCell id="9yDHnJCXjqSah3qOX6L0-33" value="No" style="text;html=1;strokeColor=none;fillColor=none;align=center;verticalAlign=middle;whiteSpace=wrap;rounded=0;" vertex="1" parent="1">
          <mxGeometry x="230" y="550" width="60" height="30" as="geometry" />
        </mxCell>
        <mxCell id="9yDHnJCXjqSah3qOX6L0-37" style="edgeStyle=orthogonalEdgeStyle;rounded=0;orthogonalLoop=1;jettySize=auto;html=1;exitX=1;exitY=0.5;exitDx=0;exitDy=0;entryX=0.5;entryY=0;entryDx=0;entryDy=0;" edge="1" parent="1" source="9yDHnJCXjqSah3qOX6L0-35" target="9yDHnJCXjqSah3qOX6L0-23">
          <mxGeometry relative="1" as="geometry" />
        </mxCell>
        <mxCell id="9yDHnJCXjqSah3qOX6L0-46" value="" style="edgeStyle=orthogonalEdgeStyle;rounded=0;orthogonalLoop=1;jettySize=auto;html=1;" edge="1" parent="1" source="9yDHnJCXjqSah3qOX6L0-35">
          <mxGeometry relative="1" as="geometry">
            <mxPoint x="235" y="870" as="targetPoint" />
          </mxGeometry>
        </mxCell>
        <mxCell id="9yDHnJCXjqSah3qOX6L0-35" value="Is there one endpoint in the alive list?" style="rhombus;whiteSpace=wrap;html=1;" vertex="1" parent="1">
          <mxGeometry x="115" y="700" width="240" height="130" as="geometry" />
        </mxCell>
        <mxCell id="9yDHnJCXjqSah3qOX6L0-41" value="Yes" style="text;html=1;strokeColor=none;fillColor=none;align=center;verticalAlign=middle;whiteSpace=wrap;rounded=0;" vertex="1" parent="1">
          <mxGeometry x="460" y="600" width="60" height="30" as="geometry" />
        </mxCell>
        <mxCell id="9yDHnJCXjqSah3qOX6L0-44" value="No" style="text;html=1;strokeColor=none;fillColor=none;align=center;verticalAlign=middle;whiteSpace=wrap;rounded=0;" vertex="1" parent="1">
          <mxGeometry x="460" y="740" width="60" height="30" as="geometry" />
        </mxCell>
        <mxCell id="9yDHnJCXjqSah3qOX6L0-49" value="Traffic&amp;nbsp; hit the endpoint" style="rounded=1;whiteSpace=wrap;html=1;" vertex="1" parent="1">
          <mxGeometry x="167.5" y="870" width="135" height="50" as="geometry" />
        </mxCell>
        <mxCell id="9yDHnJCXjqSah3qOX6L0-51" value="Yes" style="text;html=1;strokeColor=none;fillColor=none;align=center;verticalAlign=middle;whiteSpace=wrap;rounded=0;" vertex="1" parent="1">
          <mxGeometry x="220" y="830" width="60" height="30" as="geometry" />
        </mxCell>
      </root>
    </mxGraphModel>
  </diagram>
</mxfile>
